<?xml version="1.0" encoding="UTF-8" standalone="no"?>
<svg xmlns="http://www.w3.org/2000/svg" width="100" height="100" viewBox="0 0 100 100">
  <circle cx="50" cy="50" r="45" fill="#FFFBEB" stroke="#CA8A04" stroke-width="3"/>
  <g transform="translate(10, 45)">
    <text font-family="Arial, sans-serif" font-weight="bold" font-size="14" fill="#CA8A04">
      <tspan x="0" y="0">CONNAISSANCE</tspan>
      <tspan x="30" y="20">.CO</tspan>
    </text>
  </g>
  <!-- Stylized brain or knowledge icon -->
  <path d="M40,25 C35,20 30,25 30,30 C25,25 20,30 20,35 C20,45 35,50 50,50 C65,50 80,45 80,35 C80,30 75,25 70,30 C70,25 65,20 60,25" stroke="#CA8A04" stroke-width="2" fill="none" stroke-linecap="round"/>
  <circle cx="35" cy="30" r="2" fill="#CA8A04"/>
  <circle cx="45" cy="28" r="2" fill="#CA8A04"/>
  <circle cx="55" cy="28" r="2" fill="#CA8A04"/>
  <circle cx="65" cy="30" r="2" fill="#CA8A04"/>
</svg>